<svg width="41" height="40" viewBox="0 0 41 40" fill="none" xmlns="http://www.w3.org/2000/svg">
<rect width="40.02" height="40" rx="12" fill="#1A237E"/>
<path d="M10.8954 21.9688L9.31555 20.8264L14.1767 13.0486L17.0933 16.4514L20.9822 10.1319L23.8989 14.5069L27.1801 9.30556L28.76 10.4479L23.9475 18.0799L21.0551 13.7292L17.3607 19.7326L14.4197 16.3056L10.8954 21.9688ZM22.4406 25.8333C23.1211 25.8333 23.6963 25.5984 24.1662 25.1285C24.6362 24.6586 24.8711 24.0833 24.8711 23.4028C24.8711 22.7222 24.6362 22.147 24.1662 21.6771C23.6963 21.2072 23.1211 20.9722 22.4406 20.9722C21.76 20.9722 21.1848 21.2072 20.7149 21.6771C20.245 22.147 20.01 22.7222 20.01 23.4028C20.01 24.0833 20.245 24.6586 20.7149 25.1285C21.1848 25.5984 21.76 25.8333 22.4406 25.8333ZM27.3989 29.7222L24.7739 27.0972C24.4336 27.3241 24.065 27.4942 23.668 27.6076C23.271 27.7211 22.8618 27.7778 22.4406 27.7778C21.2253 27.7778 20.1923 27.3524 19.3416 26.5017C18.4909 25.651 18.0656 24.6181 18.0656 23.4028C18.0656 22.1875 18.4909 21.1545 19.3416 20.3038C20.1923 19.4531 21.2253 19.0278 22.4406 19.0278C23.6558 19.0278 24.6888 19.4531 25.5395 20.3038C26.3902 21.1545 26.8156 22.1875 26.8156 23.4028C26.8156 23.8241 26.7588 24.2332 26.6454 24.6302C26.532 25.0272 26.3618 25.3958 26.135 25.7361L28.76 28.3611L27.3989 29.7222Z" fill="white"/>
</svg>
